<svg xmlns="http://www.w3.org/2000/svg" width="1086" height="626" style="cursor: move; touch-action: none; -webkit-tap-highlight-color: rgba(0, 0, 0, 0);"><g transform="translate(363.70214266431196,193) scale(0.5)"><rect class="rect" id="0_0" width="84" height="84" x="-483" y="259" style="fill: rgb(160, 160, 160); stroke: black; stroke-width: 1; opacity: 0.8;"></rect><rect class="rect" id="0_1" width="84" height="84" x="-475" y="267" style="fill: rgb(224, 224, 224); stroke: black; stroke-width: 1; opacity: 0.8;"></rect><rect class="rect" id="0_2" width="84" height="84" x="-467" y="275" style="fill: rgb(160, 160, 160); stroke: black; stroke-width: 1; opacity: 0.8;"></rect><rect class="rect" id="0_3" width="84" height="84" x="-459" y="283" style="fill: rgb(224, 224, 224); stroke: black; stroke-width: 1; opacity: 0.8;"></rect><rect class="rect" id="1_0" width="20" height="20" x="-335" y="179" style="fill: rgb(160, 160, 160); stroke: black; stroke-width: 1; opacity: 0.8;"></rect><rect class="rect" id="1_1" width="20" height="20" x="-327" y="187" style="fill: rgb(224, 224, 224); stroke: black; stroke-width: 1; opacity: 0.8;"></rect><rect class="rect" id="1_2" width="20" height="20" x="-319" y="195" style="fill: rgb(160, 160, 160); stroke: black; stroke-width: 1; opacity: 0.8;"></rect><rect class="rect" id="1_3" width="20" height="20" x="-311" y="203" style="fill: rgb(224, 224, 224); stroke: black; stroke-width: 1; opacity: 0.8;"></rect><rect class="rect" id="1_4" width="20" height="20" x="-303" y="211" style="fill: rgb(160, 160, 160); stroke: black; stroke-width: 1; opacity: 0.8;"></rect><rect class="rect" id="1_5" width="20" height="20" x="-295" y="219" style="fill: rgb(224, 224, 224); stroke: black; stroke-width: 1; opacity: 0.8;"></rect><rect class="rect" id="1_6" width="20" height="20" x="-287" y="227" style="fill: rgb(160, 160, 160); stroke: black; stroke-width: 1; opacity: 0.8;"></rect><rect class="rect" id="1_7" width="20" height="20" x="-279" y="235" style="fill: rgb(224, 224, 224); stroke: black; stroke-width: 1; opacity: 0.8;"></rect><rect class="rect" id="1_8" width="20" height="20" x="-271" y="243" style="fill: rgb(160, 160, 160); stroke: black; stroke-width: 1; opacity: 0.8;"></rect><rect class="rect" id="1_9" width="20" height="20" x="-263" y="251" style="fill: rgb(224, 224, 224); stroke: black; stroke-width: 1; opacity: 0.8;"></rect><rect class="rect" id="1_10" width="20" height="20" x="-255" y="259" style="fill: rgb(160, 160, 160); stroke: black; stroke-width: 1; opacity: 0.8;"></rect><rect class="rect" id="1_11" width="20" height="20" x="-247" y="267" style="fill: rgb(224, 224, 224); stroke: black; stroke-width: 1; opacity: 0.8;"></rect><rect class="rect" id="1_12" width="20" height="20" x="-239" y="275" style="fill: rgb(160, 160, 160); stroke: black; stroke-width: 1; opacity: 0.8;"></rect><rect class="rect" id="1_13" width="20" height="20" x="-231" y="283" style="fill: rgb(224, 224, 224); stroke: black; stroke-width: 1; opacity: 0.8;"></rect><rect class="rect" id="1_14" width="20" height="20" x="-223" y="291" style="fill: rgb(160, 160, 160); stroke: black; stroke-width: 1; opacity: 0.8;"></rect><rect class="rect" id="1_15" width="20" height="20" x="-215" y="299" style="fill: rgb(224, 224, 224); stroke: black; stroke-width: 1; opacity: 0.8;"></rect><rect class="rect" id="1_16" width="20" height="20" x="-207" y="307" style="fill: rgb(160, 160, 160); stroke: black; stroke-width: 1; opacity: 0.8;"></rect><rect class="rect" id="1_17" width="20" height="20" x="-199" y="315" style="fill: rgb(224, 224, 224); stroke: black; stroke-width: 1; opacity: 0.8;"></rect><rect class="rect" id="1_18" width="20" height="20" x="-191" y="323" style="fill: rgb(160, 160, 160); stroke: black; stroke-width: 1; opacity: 0.8;"></rect><rect class="rect" id="1_19" width="20" height="20" x="-183" y="331" style="fill: rgb(224, 224, 224); stroke: black; stroke-width: 1; opacity: 0.8;"></rect><rect class="rect" id="1_20" width="20" height="20" x="-175" y="339" style="fill: rgb(160, 160, 160); stroke: black; stroke-width: 1; opacity: 0.8;"></rect><rect class="rect" id="1_21" width="20" height="20" x="-167" y="347" style="fill: rgb(224, 224, 224); stroke: black; stroke-width: 1; opacity: 0.8;"></rect><rect class="rect" id="1_22" width="20" height="20" x="-159" y="355" style="fill: rgb(160, 160, 160); stroke: black; stroke-width: 1; opacity: 0.8;"></rect><rect class="rect" id="1_23" width="20" height="20" x="-151" y="363" style="fill: rgb(224, 224, 224); stroke: black; stroke-width: 1; opacity: 0.8;"></rect><rect class="rect" id="1_24" width="20" height="20" x="-143" y="371" style="fill: rgb(160, 160, 160); stroke: black; stroke-width: 1; opacity: 0.8;"></rect><rect class="rect" id="1_25" width="20" height="20" x="-135" y="379" style="fill: rgb(224, 224, 224); stroke: black; stroke-width: 1; opacity: 0.8;"></rect><rect class="rect" id="1_26" width="20" height="20" x="-127" y="387" style="fill: rgb(160, 160, 160); stroke: black; stroke-width: 1; opacity: 0.8;"></rect><rect class="rect" id="1_27" width="20" height="20" x="-119" y="395" style="fill: rgb(224, 224, 224); stroke: black; stroke-width: 1; opacity: 0.8;"></rect><rect class="rect" id="1_28" width="20" height="20" x="-111" y="403" style="fill: rgb(160, 160, 160); stroke: black; stroke-width: 1; opacity: 0.8;"></rect><rect class="rect" id="1_29" width="20" height="20" x="-103" y="411" style="fill: rgb(224, 224, 224); stroke: black; stroke-width: 1; opacity: 0.8;"></rect><rect class="rect" id="1_30" width="20" height="20" x="-95" y="419" style="fill: rgb(160, 160, 160); stroke: black; stroke-width: 1; opacity: 0.8;"></rect><rect class="rect" id="1_31" width="20" height="20" x="-87" y="427" style="fill: rgb(224, 224, 224); stroke: black; stroke-width: 1; opacity: 0.8;"></rect><rect class="rect" id="2_0" width="9" height="9" x="-57" y="56.5" style="fill: rgb(160, 160, 160); stroke: black; stroke-width: 1; opacity: 0.8;"></rect><rect class="rect" id="2_1" width="9" height="9" x="-49" y="64.5" style="fill: rgb(224, 224, 224); stroke: black; stroke-width: 1; opacity: 0.8;"></rect><rect class="rect" id="2_2" width="9" height="9" x="-41" y="72.5" style="fill: rgb(160, 160, 160); stroke: black; stroke-width: 1; opacity: 0.8;"></rect><rect class="rect" id="2_3" width="9" height="9" x="-33" y="80.5" style="fill: rgb(224, 224, 224); stroke: black; stroke-width: 1; opacity: 0.8;"></rect><rect class="rect" id="2_4" width="9" height="9" x="-25" y="88.5" style="fill: rgb(160, 160, 160); stroke: black; stroke-width: 1; opacity: 0.8;"></rect><rect class="rect" id="2_5" width="9" height="9" x="-17" y="96.5" style="fill: rgb(224, 224, 224); stroke: black; stroke-width: 1; opacity: 0.8;"></rect><rect class="rect" id="2_6" width="9" height="9" x="-9" y="104.5" style="fill: rgb(160, 160, 160); stroke: black; stroke-width: 1; opacity: 0.8;"></rect><rect class="rect" id="2_7" width="9" height="9" x="-1" y="112.5" style="fill: rgb(224, 224, 224); stroke: black; stroke-width: 1; opacity: 0.8;"></rect><rect class="rect" id="2_8" width="9" height="9" x="7" y="120.5" style="fill: rgb(160, 160, 160); stroke: black; stroke-width: 1; opacity: 0.8;"></rect><rect class="rect" id="2_9" width="9" height="9" x="15" y="128.5" style="fill: rgb(224, 224, 224); stroke: black; stroke-width: 1; opacity: 0.8;"></rect><rect class="rect" id="2_10" width="9" height="9" x="23" y="136.5" style="fill: rgb(160, 160, 160); stroke: black; stroke-width: 1; opacity: 0.8;"></rect><rect class="rect" id="2_11" width="9" height="9" x="31" y="144.5" style="fill: rgb(224, 224, 224); stroke: black; stroke-width: 1; opacity: 0.8;"></rect><rect class="rect" id="2_12" width="9" height="9" x="39" y="152.5" style="fill: rgb(160, 160, 160); stroke: black; stroke-width: 1; opacity: 0.8;"></rect><rect class="rect" id="2_13" width="9" height="9" x="47" y="160.5" style="fill: rgb(224, 224, 224); stroke: black; stroke-width: 1; opacity: 0.8;"></rect><rect class="rect" id="2_14" width="9" height="9" x="55" y="168.5" style="fill: rgb(160, 160, 160); stroke: black; stroke-width: 1; opacity: 0.8;"></rect><rect class="rect" id="2_15" width="9" height="9" x="63" y="176.5" style="fill: rgb(224, 224, 224); stroke: black; stroke-width: 1; opacity: 0.8;"></rect><rect class="rect" id="2_16" width="9" height="9" x="71" y="184.5" style="fill: rgb(160, 160, 160); stroke: black; stroke-width: 1; opacity: 0.8;"></rect><rect class="rect" id="2_17" width="9" height="9" x="79" y="192.5" style="fill: rgb(224, 224, 224); stroke: black; stroke-width: 1; opacity: 0.8;"></rect><rect class="rect" id="2_18" width="9" height="9" x="87" y="200.5" style="fill: rgb(160, 160, 160); stroke: black; stroke-width: 1; opacity: 0.8;"></rect><rect class="rect" id="2_19" width="9" height="9" x="95" y="208.5" style="fill: rgb(224, 224, 224); stroke: black; stroke-width: 1; opacity: 0.8;"></rect><rect class="rect" id="2_20" width="9" height="9" x="103" y="216.5" style="fill: rgb(160, 160, 160); stroke: black; stroke-width: 1; opacity: 0.8;"></rect><rect class="rect" id="2_21" width="9" height="9" x="111" y="224.5" style="fill: rgb(224, 224, 224); stroke: black; stroke-width: 1; opacity: 0.8;"></rect><rect class="rect" id="2_22" width="9" height="9" x="119" y="232.5" style="fill: rgb(160, 160, 160); stroke: black; stroke-width: 1; opacity: 0.8;"></rect><rect class="rect" id="2_23" width="9" height="9" x="127" y="240.5" style="fill: rgb(224, 224, 224); stroke: black; stroke-width: 1; opacity: 0.8;"></rect><rect class="rect" id="2_24" width="9" height="9" x="135" y="248.5" style="fill: rgb(160, 160, 160); stroke: black; stroke-width: 1; opacity: 0.8;"></rect><rect class="rect" id="2_25" width="9" height="9" x="143" y="256.5" style="fill: rgb(224, 224, 224); stroke: black; stroke-width: 1; opacity: 0.8;"></rect><rect class="rect" id="2_26" width="9" height="9" x="151" y="264.5" style="fill: rgb(160, 160, 160); stroke: black; stroke-width: 1; opacity: 0.8;"></rect><rect class="rect" id="2_27" width="9" height="9" x="159" y="272.5" style="fill: rgb(224, 224, 224); stroke: black; stroke-width: 1; opacity: 0.8;"></rect><rect class="rect" id="2_28" width="9" height="9" x="167" y="280.5" style="fill: rgb(160, 160, 160); stroke: black; stroke-width: 1; opacity: 0.8;"></rect><rect class="rect" id="2_29" width="9" height="9" x="175" y="288.5" style="fill: rgb(224, 224, 224); stroke: black; stroke-width: 1; opacity: 0.8;"></rect><rect class="rect" id="2_30" width="9" height="9" x="183" y="296.5" style="fill: rgb(160, 160, 160); stroke: black; stroke-width: 1; opacity: 0.8;"></rect><rect class="rect" id="2_31" width="9" height="9" x="191" y="304.5" style="fill: rgb(224, 224, 224); stroke: black; stroke-width: 1; opacity: 0.8;"></rect><rect class="rect" id="2_32" width="9" height="9" x="199" y="312.5" style="fill: rgb(160, 160, 160); stroke: black; stroke-width: 1; opacity: 0.8;"></rect><rect class="rect" id="2_33" width="9" height="9" x="207" y="320.5" style="fill: rgb(224, 224, 224); stroke: black; stroke-width: 1; opacity: 0.8;"></rect><rect class="rect" id="2_34" width="9" height="9" x="215" y="328.5" style="fill: rgb(160, 160, 160); stroke: black; stroke-width: 1; opacity: 0.8;"></rect><rect class="rect" id="2_35" width="9" height="9" x="223" y="336.5" style="fill: rgb(224, 224, 224); stroke: black; stroke-width: 1; opacity: 0.8;"></rect><rect class="rect" id="2_36" width="9" height="9" x="231" y="344.5" style="fill: rgb(160, 160, 160); stroke: black; stroke-width: 1; opacity: 0.8;"></rect><rect class="rect" id="2_37" width="9" height="9" x="239" y="352.5" style="fill: rgb(224, 224, 224); stroke: black; stroke-width: 1; opacity: 0.8;"></rect><rect class="rect" id="2_38" width="9" height="9" x="247" y="360.5" style="fill: rgb(160, 160, 160); stroke: black; stroke-width: 1; opacity: 0.8;"></rect><rect class="rect" id="2_39" width="9" height="9" x="255" y="368.5" style="fill: rgb(224, 224, 224); stroke: black; stroke-width: 1; opacity: 0.8;"></rect><rect class="rect" id="2_40" width="9" height="9" x="263" y="376.5" style="fill: rgb(160, 160, 160); stroke: black; stroke-width: 1; opacity: 0.8;"></rect><rect class="rect" id="2_41" width="9" height="9" x="271" y="384.5" style="fill: rgb(224, 224, 224); stroke: black; stroke-width: 1; opacity: 0.8;"></rect><rect class="rect" id="2_42" width="9" height="9" x="279" y="392.5" style="fill: rgb(160, 160, 160); stroke: black; stroke-width: 1; opacity: 0.8;"></rect><rect class="rect" id="2_43" width="9" height="9" x="287" y="400.5" style="fill: rgb(224, 224, 224); stroke: black; stroke-width: 1; opacity: 0.8;"></rect><rect class="rect" id="2_44" width="9" height="9" x="295" y="408.5" style="fill: rgb(160, 160, 160); stroke: black; stroke-width: 1; opacity: 0.8;"></rect><rect class="rect" id="2_45" width="9" height="9" x="303" y="416.5" style="fill: rgb(224, 224, 224); stroke: black; stroke-width: 1; opacity: 0.8;"></rect><rect class="rect" id="2_46" width="9" height="9" x="311" y="424.5" style="fill: rgb(160, 160, 160); stroke: black; stroke-width: 1; opacity: 0.8;"></rect><rect class="rect" id="2_47" width="9" height="9" x="319" y="432.5" style="fill: rgb(224, 224, 224); stroke: black; stroke-width: 1; opacity: 0.8;"></rect><rect class="rect" id="2_48" width="9" height="9" x="327" y="440.5" style="fill: rgb(160, 160, 160); stroke: black; stroke-width: 1; opacity: 0.8;"></rect><rect class="rect" id="2_49" width="9" height="9" x="335" y="448.5" style="fill: rgb(224, 224, 224); stroke: black; stroke-width: 1; opacity: 0.8;"></rect><rect class="rect" id="2_50" width="9" height="9" x="343" y="456.5" style="fill: rgb(160, 160, 160); stroke: black; stroke-width: 1; opacity: 0.8;"></rect><rect class="rect" id="2_51" width="9" height="9" x="351" y="464.5" style="fill: rgb(224, 224, 224); stroke: black; stroke-width: 1; opacity: 0.8;"></rect><rect class="rect" id="2_52" width="9" height="9" x="359" y="472.5" style="fill: rgb(160, 160, 160); stroke: black; stroke-width: 1; opacity: 0.8;"></rect><rect class="rect" id="2_53" width="9" height="9" x="367" y="480.5" style="fill: rgb(224, 224, 224); stroke: black; stroke-width: 1; opacity: 0.8;"></rect><rect class="rect" id="2_54" width="9" height="9" x="375" y="488.5" style="fill: rgb(160, 160, 160); stroke: black; stroke-width: 1; opacity: 0.8;"></rect><rect class="rect" id="2_55" width="9" height="9" x="383" y="496.5" style="fill: rgb(224, 224, 224); stroke: black; stroke-width: 1; opacity: 0.8;"></rect><rect class="rect" id="2_56" width="9" height="9" x="391" y="504.5" style="fill: rgb(160, 160, 160); stroke: black; stroke-width: 1; opacity: 0.8;"></rect><rect class="rect" id="2_57" width="9" height="9" x="399" y="512.5" style="fill: rgb(224, 224, 224); stroke: black; stroke-width: 1; opacity: 0.8;"></rect><rect class="rect" id="2_58" width="9" height="9" x="407" y="520.5" style="fill: rgb(160, 160, 160); stroke: black; stroke-width: 1; opacity: 0.8;"></rect><rect class="rect" id="2_59" width="9" height="9" x="415" y="528.5" style="fill: rgb(224, 224, 224); stroke: black; stroke-width: 1; opacity: 0.8;"></rect><rect class="rect" id="2_60" width="9" height="9" x="423" y="536.5" style="fill: rgb(160, 160, 160); stroke: black; stroke-width: 1; opacity: 0.8;"></rect><rect class="rect" id="2_61" width="9" height="9" x="431" y="544.5" style="fill: rgb(224, 224, 224); stroke: black; stroke-width: 1; opacity: 0.8;"></rect><rect class="rect" id="2_62" width="9" height="9" x="439" y="552.5" style="fill: rgb(160, 160, 160); stroke: black; stroke-width: 1; opacity: 0.8;"></rect><rect class="rect" id="2_63" width="9" height="9" x="447" y="560.5" style="fill: rgb(224, 224, 224); stroke: black; stroke-width: 1; opacity: 0.8;"></rect><rect class="rect" id="3_0" width="7" height="7" x="436" y="57.5" style="fill: rgb(160, 160, 160); stroke: black; stroke-width: 1; opacity: 0.8;"></rect><rect class="rect" id="3_1" width="7" height="7" x="444" y="65.5" style="fill: rgb(224, 224, 224); stroke: black; stroke-width: 1; opacity: 0.8;"></rect><rect class="rect" id="3_2" width="7" height="7" x="452" y="73.5" style="fill: rgb(160, 160, 160); stroke: black; stroke-width: 1; opacity: 0.8;"></rect><rect class="rect" id="3_3" width="7" height="7" x="460" y="81.5" style="fill: rgb(224, 224, 224); stroke: black; stroke-width: 1; opacity: 0.8;"></rect><rect class="rect" id="3_4" width="7" height="7" x="468" y="89.5" style="fill: rgb(160, 160, 160); stroke: black; stroke-width: 1; opacity: 0.8;"></rect><rect class="rect" id="3_5" width="7" height="7" x="476" y="97.5" style="fill: rgb(224, 224, 224); stroke: black; stroke-width: 1; opacity: 0.8;"></rect><rect class="rect" id="3_6" width="7" height="7" x="484" y="105.5" style="fill: rgb(160, 160, 160); stroke: black; stroke-width: 1; opacity: 0.8;"></rect><rect class="rect" id="3_7" width="7" height="7" x="492" y="113.5" style="fill: rgb(224, 224, 224); stroke: black; stroke-width: 1; opacity: 0.8;"></rect><rect class="rect" id="3_8" width="7" height="7" x="500" y="121.5" style="fill: rgb(160, 160, 160); stroke: black; stroke-width: 1; opacity: 0.8;"></rect><rect class="rect" id="3_9" width="7" height="7" x="508" y="129.5" style="fill: rgb(224, 224, 224); stroke: black; stroke-width: 1; opacity: 0.8;"></rect><rect class="rect" id="3_10" width="7" height="7" x="516" y="137.5" style="fill: rgb(160, 160, 160); stroke: black; stroke-width: 1; opacity: 0.8;"></rect><rect class="rect" id="3_11" width="7" height="7" x="524" y="145.5" style="fill: rgb(224, 224, 224); stroke: black; stroke-width: 1; opacity: 0.8;"></rect><rect class="rect" id="3_12" width="7" height="7" x="532" y="153.5" style="fill: rgb(160, 160, 160); stroke: black; stroke-width: 1; opacity: 0.8;"></rect><rect class="rect" id="3_13" width="7" height="7" x="540" y="161.5" style="fill: rgb(224, 224, 224); stroke: black; stroke-width: 1; opacity: 0.8;"></rect><rect class="rect" id="3_14" width="7" height="7" x="548" y="169.5" style="fill: rgb(160, 160, 160); stroke: black; stroke-width: 1; opacity: 0.8;"></rect><rect class="rect" id="3_15" width="7" height="7" x="556" y="177.5" style="fill: rgb(224, 224, 224); stroke: black; stroke-width: 1; opacity: 0.8;"></rect><rect class="rect" id="3_16" width="7" height="7" x="564" y="185.5" style="fill: rgb(160, 160, 160); stroke: black; stroke-width: 1; opacity: 0.8;"></rect><rect class="rect" id="3_17" width="7" height="7" x="572" y="193.5" style="fill: rgb(224, 224, 224); stroke: black; stroke-width: 1; opacity: 0.8;"></rect><rect class="rect" id="3_18" width="7" height="7" x="580" y="201.5" style="fill: rgb(160, 160, 160); stroke: black; stroke-width: 1; opacity: 0.8;"></rect><rect class="rect" id="3_19" width="7" height="7" x="588" y="209.5" style="fill: rgb(224, 224, 224); stroke: black; stroke-width: 1; opacity: 0.8;"></rect><rect class="rect" id="3_20" width="7" height="7" x="596" y="217.5" style="fill: rgb(160, 160, 160); stroke: black; stroke-width: 1; opacity: 0.8;"></rect><rect class="rect" id="3_21" width="7" height="7" x="604" y="225.5" style="fill: rgb(224, 224, 224); stroke: black; stroke-width: 1; opacity: 0.8;"></rect><rect class="rect" id="3_22" width="7" height="7" x="612" y="233.5" style="fill: rgb(160, 160, 160); stroke: black; stroke-width: 1; opacity: 0.8;"></rect><rect class="rect" id="3_23" width="7" height="7" x="620" y="241.5" style="fill: rgb(224, 224, 224); stroke: black; stroke-width: 1; opacity: 0.8;"></rect><rect class="rect" id="3_24" width="7" height="7" x="628" y="249.5" style="fill: rgb(160, 160, 160); stroke: black; stroke-width: 1; opacity: 0.8;"></rect><rect class="rect" id="3_25" width="7" height="7" x="636" y="257.5" style="fill: rgb(224, 224, 224); stroke: black; stroke-width: 1; opacity: 0.8;"></rect><rect class="rect" id="3_26" width="7" height="7" x="644" y="265.5" style="fill: rgb(160, 160, 160); stroke: black; stroke-width: 1; opacity: 0.8;"></rect><rect class="rect" id="3_27" width="7" height="7" x="652" y="273.5" style="fill: rgb(224, 224, 224); stroke: black; stroke-width: 1; opacity: 0.8;"></rect><rect class="rect" id="3_28" width="7" height="7" x="660" y="281.5" style="fill: rgb(160, 160, 160); stroke: black; stroke-width: 1; opacity: 0.8;"></rect><rect class="rect" id="3_29" width="7" height="7" x="668" y="289.5" style="fill: rgb(224, 224, 224); stroke: black; stroke-width: 1; opacity: 0.8;"></rect><rect class="rect" id="3_30" width="7" height="7" x="676" y="297.5" style="fill: rgb(160, 160, 160); stroke: black; stroke-width: 1; opacity: 0.8;"></rect><rect class="rect" id="3_31" width="7" height="7" x="684" y="305.5" style="fill: rgb(224, 224, 224); stroke: black; stroke-width: 1; opacity: 0.8;"></rect><rect class="rect" id="3_32" width="7" height="7" x="692" y="313.5" style="fill: rgb(160, 160, 160); stroke: black; stroke-width: 1; opacity: 0.8;"></rect><rect class="rect" id="3_33" width="7" height="7" x="700" y="321.5" style="fill: rgb(224, 224, 224); stroke: black; stroke-width: 1; opacity: 0.8;"></rect><rect class="rect" id="3_34" width="7" height="7" x="708" y="329.5" style="fill: rgb(160, 160, 160); stroke: black; stroke-width: 1; opacity: 0.8;"></rect><rect class="rect" id="3_35" width="7" height="7" x="716" y="337.5" style="fill: rgb(224, 224, 224); stroke: black; stroke-width: 1; opacity: 0.8;"></rect><rect class="rect" id="3_36" width="7" height="7" x="724" y="345.5" style="fill: rgb(160, 160, 160); stroke: black; stroke-width: 1; opacity: 0.8;"></rect><rect class="rect" id="3_37" width="7" height="7" x="732" y="353.5" style="fill: rgb(224, 224, 224); stroke: black; stroke-width: 1; opacity: 0.8;"></rect><rect class="rect" id="3_38" width="7" height="7" x="740" y="361.5" style="fill: rgb(160, 160, 160); stroke: black; stroke-width: 1; opacity: 0.8;"></rect><rect class="rect" id="3_39" width="7" height="7" x="748" y="369.5" style="fill: rgb(224, 224, 224); stroke: black; stroke-width: 1; opacity: 0.8;"></rect><rect class="rect" id="3_40" width="7" height="7" x="756" y="377.5" style="fill: rgb(160, 160, 160); stroke: black; stroke-width: 1; opacity: 0.8;"></rect><rect class="rect" id="3_41" width="7" height="7" x="764" y="385.5" style="fill: rgb(224, 224, 224); stroke: black; stroke-width: 1; opacity: 0.8;"></rect><rect class="rect" id="3_42" width="7" height="7" x="772" y="393.5" style="fill: rgb(160, 160, 160); stroke: black; stroke-width: 1; opacity: 0.8;"></rect><rect class="rect" id="3_43" width="7" height="7" x="780" y="401.5" style="fill: rgb(224, 224, 224); stroke: black; stroke-width: 1; opacity: 0.8;"></rect><rect class="rect" id="3_44" width="7" height="7" x="788" y="409.5" style="fill: rgb(160, 160, 160); stroke: black; stroke-width: 1; opacity: 0.8;"></rect><rect class="rect" id="3_45" width="7" height="7" x="796" y="417.5" style="fill: rgb(224, 224, 224); stroke: black; stroke-width: 1; opacity: 0.8;"></rect><rect class="rect" id="3_46" width="7" height="7" x="804" y="425.5" style="fill: rgb(160, 160, 160); stroke: black; stroke-width: 1; opacity: 0.8;"></rect><rect class="rect" id="3_47" width="7" height="7" x="812" y="433.5" style="fill: rgb(224, 224, 224); stroke: black; stroke-width: 1; opacity: 0.8;"></rect><rect class="rect" id="3_48" width="7" height="7" x="820" y="441.5" style="fill: rgb(160, 160, 160); stroke: black; stroke-width: 1; opacity: 0.8;"></rect><rect class="rect" id="3_49" width="7" height="7" x="828" y="449.5" style="fill: rgb(224, 224, 224); stroke: black; stroke-width: 1; opacity: 0.8;"></rect><rect class="rect" id="3_50" width="7" height="7" x="836" y="457.5" style="fill: rgb(160, 160, 160); stroke: black; stroke-width: 1; opacity: 0.8;"></rect><rect class="rect" id="3_51" width="7" height="7" x="844" y="465.5" style="fill: rgb(224, 224, 224); stroke: black; stroke-width: 1; opacity: 0.8;"></rect><rect class="rect" id="3_52" width="7" height="7" x="852" y="473.5" style="fill: rgb(160, 160, 160); stroke: black; stroke-width: 1; opacity: 0.8;"></rect><rect class="rect" id="3_53" width="7" height="7" x="860" y="481.5" style="fill: rgb(224, 224, 224); stroke: black; stroke-width: 1; opacity: 0.8;"></rect><rect class="rect" id="3_54" width="7" height="7" x="868" y="489.5" style="fill: rgb(160, 160, 160); stroke: black; stroke-width: 1; opacity: 0.8;"></rect><rect class="rect" id="3_55" width="7" height="7" x="876" y="497.5" style="fill: rgb(224, 224, 224); stroke: black; stroke-width: 1; opacity: 0.8;"></rect><rect class="rect" id="3_56" width="7" height="7" x="884" y="505.5" style="fill: rgb(160, 160, 160); stroke: black; stroke-width: 1; opacity: 0.8;"></rect><rect class="rect" id="3_57" width="7" height="7" x="892" y="513.5" style="fill: rgb(224, 224, 224); stroke: black; stroke-width: 1; opacity: 0.8;"></rect><rect class="rect" id="3_58" width="7" height="7" x="900" y="521.5" style="fill: rgb(160, 160, 160); stroke: black; stroke-width: 1; opacity: 0.8;"></rect><rect class="rect" id="3_59" width="7" height="7" x="908" y="529.5" style="fill: rgb(224, 224, 224); stroke: black; stroke-width: 1; opacity: 0.8;"></rect><rect class="rect" id="3_60" width="7" height="7" x="916" y="537.5" style="fill: rgb(160, 160, 160); stroke: black; stroke-width: 1; opacity: 0.8;"></rect><rect class="rect" id="3_61" width="7" height="7" x="924" y="545.5" style="fill: rgb(224, 224, 224); stroke: black; stroke-width: 1; opacity: 0.8;"></rect><rect class="rect" id="3_62" width="7" height="7" x="932" y="553.5" style="fill: rgb(160, 160, 160); stroke: black; stroke-width: 1; opacity: 0.8;"></rect><rect class="rect" id="3_63" width="7" height="7" x="940" y="561.5" style="fill: rgb(224, 224, 224); stroke: black; stroke-width: 1; opacity: 0.8;"></rect><rect class="conv" id="conv_0" width="8" height="8" x="-422.7379028362502" y="331.2183143368838" style="fill-opacity: 0; stroke: black; stroke-width: 1; stroke-opacity: 0.8;"></rect><rect class="conv" id="conv_1" width="4" height="4" x="-78.67515055035051" y="438.93860456787075" style="fill-opacity: 0; stroke: black; stroke-width: 1; stroke-opacity: 0.8;"></rect><rect class="conv" id="conv_2" width="3" height="3" x="447.62462212871685" y="563.7529477661284" style="fill-opacity: 0; stroke: black; stroke-width: 1; stroke-opacity: 0.8;"></rect><line class="link" id="conv_0" x1="-414.7379028362502" y1="339.2183143368838" x2="-77.4573428516448" y2="439.6890300886536" style="stroke: black; stroke-width: 0.5; stroke-opacity: 0.8;"></line><line class="link" id="conv_0" x1="-414.7379028362502" y1="331.2183143368838" x2="-77.4573428516448" y2="439.6890300886536" style="stroke: black; stroke-width: 0.5; stroke-opacity: 0.8;"></line><line class="link" id="conv_1" x1="-74.67515055035051" y1="442.93860456787075" x2="451.6827278154278" y2="567.2154650694273" style="stroke: black; stroke-width: 0.5; stroke-opacity: 0.8;"></line><line class="link" id="conv_1" x1="-74.67515055035051" y1="438.93860456787075" x2="451.6827278154278" y2="567.2154650694273" style="stroke: black; stroke-width: 0.5; stroke-opacity: 0.8;"></line><line class="link" id="conv_2" x1="450.62462212871685" y1="566.7529477661284" x2="940.7287258168365" y2="565.2951057271498" style="stroke: black; stroke-width: 0.5; stroke-opacity: 0.8;"></line><line class="link" id="conv_2" x1="450.62462212871685" y1="563.7529477661284" x2="940.7287258168365" y2="565.2951057271498" style="stroke: black; stroke-width: 0.5; stroke-opacity: 0.8;"></line><polygon class="poly" id="fc_0" points="927,131.98066401624385 937,131.98066401624385 1299.0386719675123,494.01933598375615 1289.0386719675123,494.01933598375615" style="fill: rgb(224, 224, 224); stroke: black; stroke-width: 1; opacity: 0.8;"></polygon><polygon class="poly" id="fc_1" points="1301.0386719675123,306.6360389693211 1311.0386719675123,306.6360389693211 1323.7665940288703,319.3639610306789 1313.7665940288703,319.3639610306789" style="fill: rgb(224, 224, 224); stroke: black; stroke-width: 1; opacity: 0.8;"></polygon><line class="line" id="fc_0" x1="947" y1="568.5" x2="1289.0386719675123" y2="494.01933598375615" style="stroke: black; stroke-width: 0.5; stroke-opacity: 0.8; opacity: 1;"></line><line class="line" id="fc_0" x1="443" y1="57.5" x2="927" y2="131.98066401624385" style="stroke: black; stroke-width: 0.5; stroke-opacity: 0.8; opacity: 1;"></line><line class="line" id="fc_1" x1="1299.0386719675123" y1="494.01933598375615" x2="1313.7665940288703" y2="319.3639610306789" style="stroke: black; stroke-width: 0.5; stroke-opacity: 0.8; opacity: 1;"></line><line class="line" id="fc_1" x1="937" y1="131.98066401624385" x2="1301.0386719675123" y2="306.6360389693211" style="stroke: black; stroke-width: 0.5; stroke-opacity: 0.8; opacity: 1;"></line><text class="text" dy=".35em" font-family="sans-serif" x="-303" y="772" style="font-size: 16px; opacity: 1;">conv, ReLU</text><text class="text" dy=".35em" font-family="sans-serif" x="51.25" y="772" style="font-size: 16px; opacity: 1;">conv, ReLU</text><text class="text" dy=".35em" font-family="sans-serif" x="558.75" y="772" style="font-size: 16px; opacity: 1;">conv, ReLU</text><text class="text" dy=".35em" font-family="sans-serif" x="1012.5096679918781" y="772" style="font-size: 16px; opacity: 1;">Dense</text><text class="info" dy="-0.3em" font-family="sans-serif" x="-483" y="244" style="font-size: 16px;">4@84x84</text><text class="info" dy="-0.3em" font-family="sans-serif" x="-335" y="164" style="font-size: 16px;">32@20x20</text><text class="info" dy="-0.3em" font-family="sans-serif" x="-57" y="41.5" style="font-size: 16px;">64@9x9</text><text class="info" dy="-0.3em" font-family="sans-serif" x="436" y="42.5" style="font-size: 16px;">64@7x7</text><text class="info" dy="-0.3em" font-family="sans-serif" x="927" y="116.98066401624385" style="font-size: 16px;">1x512</text><text class="info" dy="-0.3em" font-family="sans-serif" x="1301.0386719675123" y="291.6360389693211" style="font-size: 16px;">1x18</text></g></svg>