<svg xmlns="http://www.w3.org/2000/svg" id="export" class="canvas" preserveAspectRatio="xMidYMid meet" style="" width="111" height="839"><rect id="background" fill="#fff" pointer-events="all" width="111" height="839"/><g id="origin" transform="translate(5.025, 5.025) scale(1)"><g id="clusters" class="clusters"/><g id="edge-paths" class="edge-paths"><defs><marker id="arrowhead-vee" viewBox="0 0 10 10" refX="9" refY="5" markerUnits="strokeWidth" markerWidth="8" markerHeight="6" orient="auto" style="fill: rgb(0, 0, 0);"><path d="M 0 0 L 10 5 L 0 10 L 4 5 z" style="stroke-width: 1;"/></marker><marker id="arrowhead-vee-select" viewBox="0 0 10 10" refX="9" refY="5" markerUnits="strokeWidth" markerWidth="8" markerHeight="6" orient="auto" style="fill: rgb(238, 0, 0);"><path d="M 0 0 L 10 5 L 0 10 L 4 5 z" style="stroke-width: 1;"/></marker></defs><path id="edge-0" class="edge-path" d="M43.5,21L43.5,22.666666666666668C43.5,24.333333333333332,43.5,27.666666666666668,43.5,32.833333333333336C43.5,38,43.5,45,43.5,52C43.5,59,43.5,66,43.5,71.16666666666667C43.5,76.33333333333333,43.5,79.66666666666667,43.5,81.33333333333333L43.5,83" style="stroke: rgb(0, 0, 0); stroke-width: 1px; fill: none; marker-end: url(&quot;#arrowhead-vee&quot;);"/><path id="edge-11" class="edge-path" d="M43.5,104L43.5,105.66666666666667C43.5,107.33333333333333,43.5,110.66666666666667,43.5,114C43.5,117.33333333333333,43.5,120.66666666666667,43.5,122.33333333333333L43.5,124" style="stroke: rgb(0, 0, 0); stroke-width: 1px; fill: none; marker-end: url(&quot;#arrowhead-vee&quot;);"/><path id="edge-13" class="edge-path" d="M43.5,165L43.5,166.66666666666666C43.5,168.33333333333334,43.5,171.66666666666666,43.5,175C43.5,178.33333333333334,43.5,181.66666666666666,43.5,183.33333333333334L43.5,185" style="stroke: rgb(0, 0, 0); stroke-width: 1px; fill: none; marker-end: url(&quot;#arrowhead-vee&quot;);"/><path id="edge-14" class="edge-path" d="M43.5,240L43.5,241.66666666666666C43.5,243.33333333333334,43.5,246.66666666666666,43.5,250C43.5,253.33333333333334,43.5,256.6666666666667,43.5,258.3333333333333L43.5,260" style="stroke: rgb(0, 0, 0); stroke-width: 1px; fill: none; marker-end: url(&quot;#arrowhead-vee&quot;);"/><path id="edge-15" class="edge-path" d="M43.5,281L43.5,282.6666666666667C43.5,284.3333333333333,43.5,287.6666666666667,43.5,291C43.5,294.3333333333333,43.5,297.6666666666667,43.5,299.3333333333333L43.5,301" style="stroke: rgb(0, 0, 0); stroke-width: 1px; fill: none; marker-end: url(&quot;#arrowhead-vee&quot;);"/><path id="edge-16" class="edge-path" d="M43.5,356L43.5,357.6666666666667C43.5,359.3333333333333,43.5,362.6666666666667,43.5,366C43.5,369.3333333333333,43.5,372.6666666666667,43.5,374.3333333333333L43.5,376" style="stroke: rgb(0, 0, 0); stroke-width: 1px; fill: none; marker-end: url(&quot;#arrowhead-vee&quot;);"/><path id="edge-17" class="edge-path" d="M43.5,397L43.5,398.6666666666667C43.5,400.3333333333333,43.5,403.6666666666667,43.5,407C43.5,410.3333333333333,43.5,413.6666666666667,43.5,415.3333333333333L43.5,417" style="stroke: rgb(0, 0, 0); stroke-width: 1px; fill: none; marker-end: url(&quot;#arrowhead-vee&quot;);"/><path id="edge-18" class="edge-path" d="M43.5,472L43.5,473.6666666666667C43.5,475.3333333333333,43.5,478.6666666666667,43.5,482C43.5,485.3333333333333,43.5,488.6666666666667,43.5,490.3333333333333L43.5,492" style="stroke: rgb(0, 0, 0); stroke-width: 1px; fill: none; marker-end: url(&quot;#arrowhead-vee&quot;);"/><path id="edge-19" class="edge-path" d="M43.5,513L43.5,514.6666666666666C43.5,516.3333333333334,43.5,519.6666666666666,43.5,523C43.5,526.3333333333334,43.5,529.6666666666666,43.5,531.3333333333334L43.5,533" style="stroke: rgb(0, 0, 0); stroke-width: 1px; fill: none; marker-end: url(&quot;#arrowhead-vee&quot;);"/><path id="edge-25" class="edge-path" d="M43.5,574L43.5,575.6666666666666C43.5,577.3333333333334,43.5,580.6666666666666,43.5,584C43.5,587.3333333333334,43.5,590.6666666666666,43.5,592.3333333333334L43.5,594" style="stroke: rgb(0, 0, 0); stroke-width: 1px; fill: none; marker-end: url(&quot;#arrowhead-vee&quot;);"/><path id="edge-26" class="edge-path" d="M43.5,649L43.5,650.6666666666666C43.5,652.3333333333334,43.5,655.6666666666666,43.5,659C43.5,662.3333333333334,43.5,665.6666666666666,43.5,667.3333333333334L43.5,669" style="stroke: rgb(0, 0, 0); stroke-width: 1px; fill: none; marker-end: url(&quot;#arrowhead-vee&quot;);"/><path id="edge-27" class="edge-path" d="M43.5,690L43.5,691.6666666666666C43.5,693.3333333333334,43.5,696.6666666666666,43.5,700C43.5,703.3333333333334,43.5,706.6666666666666,43.5,708.3333333333334L43.5,710" style="stroke: rgb(0, 0, 0); stroke-width: 1px; fill: none; marker-end: url(&quot;#arrowhead-vee&quot;);"/><path id="edge-28" class="edge-path" d="M43.5,765L43.5,768.5C43.5,772,43.5,779,43.5,786C43.5,793,43.5,800,43.5,803.5L43.5,807" style="stroke: rgb(0, 0, 0); stroke-width: 1px; fill: none; marker-end: url(&quot;#arrowhead-vee&quot;);"/></g><g id="edge-labels" class="edge-labels"><text class="edge-label" id="edge-label-edge-0" style="opacity: 1; font-family: -apple-system, BlinkMacSystemFont, &quot;Segoe WPC&quot;, &quot;Segoe UI&quot;, Ubuntu, &quot;Droid Sans&quot;, sans-serif, &quot;PingFang SC&quot;; font-size: 10px;" transform="translate(48.5,46)"><tspan xml:space="preserve" dy="1em" x="1">5×84×84×4</tspan></text><text class="edge-label" id="edge-label-edge-28" style="opacity: 1; font-family: -apple-system, BlinkMacSystemFont, &quot;Segoe WPC&quot;, &quot;Segoe UI&quot;, Ubuntu, &quot;Droid Sans&quot;, sans-serif, &quot;PingFang SC&quot;; font-size: 10px;" transform="translate(48.5,780)"><tspan xml:space="preserve" dy="1em" x="1">5×18</tspan></text></g><g id="nodes" class="nodes"><g id="input-name-0" class="node graph-input" style="opacity: 1;" transform="translate(33.5,0)"><g class="node-item graph-item-input" transform="translate(0,0)"><path d="M5,0h10a5,5 0 0 1 5,5v11a5,5 0 0 1 -5,5h-10a5,5 0 0 1 -5,-5v-11a5,5 0 0 1 5,-5z" style="stroke: rgb(0, 0, 0); fill: rgb(238, 238, 238); stroke-width: 0;"/><text x="6" y="15" style="font-family: -apple-system, BlinkMacSystemFont, &quot;Segoe WPC&quot;, &quot;Segoe UI&quot;, Ubuntu, &quot;Droid Sans&quot;, sans-serif, &quot;PingFang SC&quot;; font-size: 11px; text-rendering: geometricprecision;">0</text><title>float32[5,84,84,4]</title></g><path class="node border" d="M5,0h10a5,5 0 0 1 5,5v11a5,5 0 0 1 -5,5h-10a5,5 0 0 1 -5,-5v-11a5,5 0 0 1 5,-5z" style="stroke: rgb(51, 51, 51); fill: none; stroke-width: 1px;"/></g><g id="node-name-Transpose_0" class="node graph-node" style="opacity: 1;" transform="translate(10.5,83)"><g class="node-item node-item-type node-item-type-transform" transform="translate(0,0)"><path d="M5,0h56a5,5 0 0 1 5,5v11a5,5 0 0 1 -5,5h-56a5,5 0 0 1 -5,-5v-11a5,5 0 0 1 5,-5z" style="stroke: rgb(0, 0, 0); fill: rgb(51, 85, 68); stroke-width: 0;"/><text x="6" y="15" style="font-family: -apple-system, BlinkMacSystemFont, &quot;Segoe WPC&quot;, &quot;Segoe UI&quot;, Ubuntu, &quot;Droid Sans&quot;, sans-serif, &quot;PingFang SC&quot;; font-size: 11px; text-rendering: geometricprecision; fill: rgb(255, 255, 255);">Transpose</text><title>Transpose_0</title></g><path class="node border" d="M5,0h56a5,5 0 0 1 5,5v11a5,5 0 0 1 -5,5h-56a5,5 0 0 1 -5,-5v-11a5,5 0 0 1 5,-5z" style="stroke: rgb(51, 51, 51); fill: none; stroke-width: 1px;"/></g><g id="node-name-Div_2" class="node graph-node" style="opacity: 1;" transform="translate(6,124)"><g class="node-item node-item-type" transform="translate(0,0)"><path d="M5,0h65a5,5 0 0 1 5,5v16a0,0 0 0 1 0,0h-75a0,0 0 0 1 0,0v-16a5,5 0 0 1 5,-5z" style="stroke: rgb(0, 0, 0); fill: rgb(0, 0, 0); stroke-width: 0;"/><text x="6" y="15" style="font-family: -apple-system, BlinkMacSystemFont, &quot;Segoe WPC&quot;, &quot;Segoe UI&quot;, Ubuntu, &quot;Droid Sans&quot;, sans-serif, &quot;PingFang SC&quot;; font-size: 11px; text-rendering: geometricprecision; fill: rgb(255, 255, 255);">Div</text><title>Div_2</title></g><g class="node-attribute" transform="translate(0,21)"><path d="M0,0h75a0,0 0 0 1 0,0v15a5,5 0 0 1 -5,5h-65a5,5 0 0 1 -5,-5v-15a0,0 0 0 1 0,0z" style="stroke: rgb(0, 0, 0); fill: rgb(255, 255, 255); stroke-width: 0;"/><text id="initializer-12" xml:space="preserve" x="6" y="14" style="font-family: -apple-system, BlinkMacSystemFont, &quot;Segoe WPC&quot;, &quot;Segoe UI&quot;, Ubuntu, &quot;Droid Sans&quot;, sans-serif, &quot;PingFang SC&quot;; font-size: 9px; font-weight: normal; text-rendering: geometricprecision;"><title>float32</title><tspan>B</tspan><tspan> = 255</tspan></text><line class="node" x1="0" x2="75" y1="0" y2="0" style="stroke: rgb(51, 51, 51); fill: none; stroke-width: 1px;"/></g><path class="node border" d="M5,0h65a5,5 0 0 1 5,5v31a5,5 0 0 1 -5,5h-65a5,5 0 0 1 -5,-5v-31a5,5 0 0 1 5,-5z" style="stroke: rgb(51, 51, 51); fill: none; stroke-width: 1px;"/></g><g id="node-name-Conv_3" class="node graph-node" style="opacity: 1;" transform="translate(2.5,185)"><g class="node-item node-item-type node-item-type-layer" transform="translate(0,0)"><path d="M5,0h72a5,5 0 0 1 5,5v16a0,0 0 0 1 0,0h-82a0,0 0 0 1 0,0v-16a5,5 0 0 1 5,-5z" style="stroke: rgb(0, 0, 0); fill: rgb(51, 85, 136); stroke-width: 0;"/><text x="6" y="15" style="font-family: -apple-system, BlinkMacSystemFont, &quot;Segoe WPC&quot;, &quot;Segoe UI&quot;, Ubuntu, &quot;Droid Sans&quot;, sans-serif, &quot;PingFang SC&quot;; font-size: 11px; text-rendering: geometricprecision; fill: rgb(255, 255, 255);">Conv</text><title>Conv_3</title></g><g class="node-attribute" transform="translate(0,21)"><path d="M0,0h82a0,0 0 0 1 0,0v29a5,5 0 0 1 -5,5h-72a5,5 0 0 1 -5,-5v-29a0,0 0 0 1 0,0z" style="stroke: rgb(0, 0, 0); fill: rgb(255, 255, 255); stroke-width: 0;"/><text id="initializer-1.weight" xml:space="preserve" x="6" y="14" style="font-family: -apple-system, BlinkMacSystemFont, &quot;Segoe WPC&quot;, &quot;Segoe UI&quot;, Ubuntu, &quot;Droid Sans&quot;, sans-serif, &quot;PingFang SC&quot;; font-size: 9px; font-weight: normal; text-rendering: geometricprecision;"><title>float32[32,4,8,8]</title><tspan style="font-weight: bold;">W</tspan><tspan>〈32×4×8×8〉</tspan></text><text id="initializer-1.bias" xml:space="preserve" x="6" y="28" style="font-family: -apple-system, BlinkMacSystemFont, &quot;Segoe WPC&quot;, &quot;Segoe UI&quot;, Ubuntu, &quot;Droid Sans&quot;, sans-serif, &quot;PingFang SC&quot;; font-size: 9px; font-weight: normal; text-rendering: geometricprecision;"><title>float32[32]</title><tspan style="font-weight: bold;">B</tspan><tspan>〈32〉</tspan></text><line class="node" x1="0" x2="82" y1="0" y2="0" style="stroke: rgb(51, 51, 51); fill: none; stroke-width: 1px;"/></g><path class="node border" d="M5,0h72a5,5 0 0 1 5,5v45a5,5 0 0 1 -5,5h-72a5,5 0 0 1 -5,-5v-45a5,5 0 0 1 5,-5z" style="stroke: rgb(51, 51, 51); fill: none; stroke-width: 1px;"/></g><g id="node-name-Relu_4" class="node graph-node" style="opacity: 1;" transform="translate(25,260)"><g class="node-item node-item-type node-item-type-activation" transform="translate(0,0)"><path d="M5,0h27a5,5 0 0 1 5,5v11a5,5 0 0 1 -5,5h-27a5,5 0 0 1 -5,-5v-11a5,5 0 0 1 5,-5z" style="stroke: rgb(0, 0, 0); fill: rgb(112, 41, 33); stroke-width: 0;"/><text x="6" y="15" style="font-family: -apple-system, BlinkMacSystemFont, &quot;Segoe WPC&quot;, &quot;Segoe UI&quot;, Ubuntu, &quot;Droid Sans&quot;, sans-serif, &quot;PingFang SC&quot;; font-size: 11px; text-rendering: geometricprecision; fill: rgb(255, 255, 255);">Relu</text><title>Relu_4</title></g><path class="node border" d="M5,0h27a5,5 0 0 1 5,5v11a5,5 0 0 1 -5,5h-27a5,5 0 0 1 -5,-5v-11a5,5 0 0 1 5,-5z" style="stroke: rgb(51, 51, 51); fill: none; stroke-width: 1px;"/></g><g id="node-name-Conv_5" class="node graph-node" style="opacity: 1;" transform="translate(0,301)"><g class="node-item node-item-type node-item-type-layer" transform="translate(0,0)"><path d="M5,0h77a5,5 0 0 1 5,5v16a0,0 0 0 1 0,0h-87a0,0 0 0 1 0,0v-16a5,5 0 0 1 5,-5z" style="stroke: rgb(0, 0, 0); fill: rgb(51, 85, 136); stroke-width: 0;"/><text x="6" y="15" style="font-family: -apple-system, BlinkMacSystemFont, &quot;Segoe WPC&quot;, &quot;Segoe UI&quot;, Ubuntu, &quot;Droid Sans&quot;, sans-serif, &quot;PingFang SC&quot;; font-size: 11px; text-rendering: geometricprecision; fill: rgb(255, 255, 255);">Conv</text><title>Conv_5</title></g><g class="node-attribute" transform="translate(0,21)"><path d="M0,0h87a0,0 0 0 1 0,0v29a5,5 0 0 1 -5,5h-77a5,5 0 0 1 -5,-5v-29a0,0 0 0 1 0,0z" style="stroke: rgb(0, 0, 0); fill: rgb(255, 255, 255); stroke-width: 0;"/><text id="initializer-3.weight" xml:space="preserve" x="6" y="14" style="font-family: -apple-system, BlinkMacSystemFont, &quot;Segoe WPC&quot;, &quot;Segoe UI&quot;, Ubuntu, &quot;Droid Sans&quot;, sans-serif, &quot;PingFang SC&quot;; font-size: 9px; font-weight: normal; text-rendering: geometricprecision;"><title>float32[64,32,4,4]</title><tspan style="font-weight: bold;">W</tspan><tspan>〈64×32×4×4〉</tspan></text><text id="initializer-3.bias" xml:space="preserve" x="6" y="28" style="font-family: -apple-system, BlinkMacSystemFont, &quot;Segoe WPC&quot;, &quot;Segoe UI&quot;, Ubuntu, &quot;Droid Sans&quot;, sans-serif, &quot;PingFang SC&quot;; font-size: 9px; font-weight: normal; text-rendering: geometricprecision;"><title>float32[64]</title><tspan style="font-weight: bold;">B</tspan><tspan>〈64〉</tspan></text><line class="node" x1="0" x2="87" y1="0" y2="0" style="stroke: rgb(51, 51, 51); fill: none; stroke-width: 1px;"/></g><path class="node border" d="M5,0h77a5,5 0 0 1 5,5v45a5,5 0 0 1 -5,5h-77a5,5 0 0 1 -5,-5v-45a5,5 0 0 1 5,-5z" style="stroke: rgb(51, 51, 51); fill: none; stroke-width: 1px;"/></g><g id="node-name-Relu_6" class="node graph-node" style="opacity: 1;" transform="translate(25,376)"><g class="node-item node-item-type node-item-type-activation" transform="translate(0,0)"><path d="M5,0h27a5,5 0 0 1 5,5v11a5,5 0 0 1 -5,5h-27a5,5 0 0 1 -5,-5v-11a5,5 0 0 1 5,-5z" style="stroke: rgb(0, 0, 0); fill: rgb(112, 41, 33); stroke-width: 0;"/><text x="6" y="15" style="font-family: -apple-system, BlinkMacSystemFont, &quot;Segoe WPC&quot;, &quot;Segoe UI&quot;, Ubuntu, &quot;Droid Sans&quot;, sans-serif, &quot;PingFang SC&quot;; font-size: 11px; text-rendering: geometricprecision; fill: rgb(255, 255, 255);">Relu</text><title>Relu_6</title></g><path class="node border" d="M5,0h27a5,5 0 0 1 5,5v11a5,5 0 0 1 -5,5h-27a5,5 0 0 1 -5,-5v-11a5,5 0 0 1 5,-5z" style="stroke: rgb(51, 51, 51); fill: none; stroke-width: 1px;"/></g><g id="node-name-Conv_7" class="node graph-node" style="opacity: 1;" transform="translate(0,417)"><g class="node-item node-item-type node-item-type-layer" transform="translate(0,0)"><path d="M5,0h77a5,5 0 0 1 5,5v16a0,0 0 0 1 0,0h-87a0,0 0 0 1 0,0v-16a5,5 0 0 1 5,-5z" style="stroke: rgb(0, 0, 0); fill: rgb(51, 85, 136); stroke-width: 0;"/><text x="6" y="15" style="font-family: -apple-system, BlinkMacSystemFont, &quot;Segoe WPC&quot;, &quot;Segoe UI&quot;, Ubuntu, &quot;Droid Sans&quot;, sans-serif, &quot;PingFang SC&quot;; font-size: 11px; text-rendering: geometricprecision; fill: rgb(255, 255, 255);">Conv</text><title>Conv_7</title></g><g class="node-attribute" transform="translate(0,21)"><path d="M0,0h87a0,0 0 0 1 0,0v29a5,5 0 0 1 -5,5h-77a5,5 0 0 1 -5,-5v-29a0,0 0 0 1 0,0z" style="stroke: rgb(0, 0, 0); fill: rgb(255, 255, 255); stroke-width: 0;"/><text id="initializer-5.weight" xml:space="preserve" x="6" y="14" style="font-family: -apple-system, BlinkMacSystemFont, &quot;Segoe WPC&quot;, &quot;Segoe UI&quot;, Ubuntu, &quot;Droid Sans&quot;, sans-serif, &quot;PingFang SC&quot;; font-size: 9px; font-weight: normal; text-rendering: geometricprecision;"><title>float32[64,64,3,3]</title><tspan style="font-weight: bold;">W</tspan><tspan>〈64×64×3×3〉</tspan></text><text id="initializer-5.bias" xml:space="preserve" x="6" y="28" style="font-family: -apple-system, BlinkMacSystemFont, &quot;Segoe WPC&quot;, &quot;Segoe UI&quot;, Ubuntu, &quot;Droid Sans&quot;, sans-serif, &quot;PingFang SC&quot;; font-size: 9px; font-weight: normal; text-rendering: geometricprecision;"><title>float32[64]</title><tspan style="font-weight: bold;">B</tspan><tspan>〈64〉</tspan></text><line class="node" x1="0" x2="87" y1="0" y2="0" style="stroke: rgb(51, 51, 51); fill: none; stroke-width: 1px;"/></g><path class="node border" d="M5,0h77a5,5 0 0 1 5,5v45a5,5 0 0 1 -5,5h-77a5,5 0 0 1 -5,-5v-45a5,5 0 0 1 5,-5z" style="stroke: rgb(51, 51, 51); fill: none; stroke-width: 1px;"/></g><g id="node-name-Relu_8" class="node graph-node" style="opacity: 1;" transform="translate(25,492)"><g class="node-item node-item-type node-item-type-activation" transform="translate(0,0)"><path d="M5,0h27a5,5 0 0 1 5,5v11a5,5 0 0 1 -5,5h-27a5,5 0 0 1 -5,-5v-11a5,5 0 0 1 5,-5z" style="stroke: rgb(0, 0, 0); fill: rgb(112, 41, 33); stroke-width: 0;"/><text x="6" y="15" style="font-family: -apple-system, BlinkMacSystemFont, &quot;Segoe WPC&quot;, &quot;Segoe UI&quot;, Ubuntu, &quot;Droid Sans&quot;, sans-serif, &quot;PingFang SC&quot;; font-size: 11px; text-rendering: geometricprecision; fill: rgb(255, 255, 255);">Relu</text><title>Relu_8</title></g><path class="node border" d="M5,0h27a5,5 0 0 1 5,5v11a5,5 0 0 1 -5,5h-27a5,5 0 0 1 -5,-5v-11a5,5 0 0 1 5,-5z" style="stroke: rgb(51, 51, 51); fill: none; stroke-width: 1px;"/></g><g id="node-name-Reshape_9" class="node graph-node" style="opacity: 1;" transform="translate(6,533)"><g class="node-item node-item-type node-item-type-shape" transform="translate(0,0)"><path d="M5,0h65a5,5 0 0 1 5,5v16a0,0 0 0 1 0,0h-75a0,0 0 0 1 0,0v-16a5,5 0 0 1 5,-5z" style="stroke: rgb(0, 0, 0); fill: rgb(108, 79, 71); stroke-width: 0;"/><text x="6" y="15" style="font-family: -apple-system, BlinkMacSystemFont, &quot;Segoe WPC&quot;, &quot;Segoe UI&quot;, Ubuntu, &quot;Droid Sans&quot;, sans-serif, &quot;PingFang SC&quot;; font-size: 11px; text-rendering: geometricprecision; fill: rgb(255, 255, 255);">Reshape</text><title>Reshape_9</title></g><g class="node-attribute" transform="translate(0,21)"><path d="M0,0h75a0,0 0 0 1 0,0v15a5,5 0 0 1 -5,5h-65a5,5 0 0 1 -5,-5v-15a0,0 0 0 1 0,0z" style="stroke: rgb(0, 0, 0); fill: rgb(255, 255, 255); stroke-width: 0;"/><text id="initializer-31" xml:space="preserve" x="6" y="14" style="font-family: -apple-system, BlinkMacSystemFont, &quot;Segoe WPC&quot;, &quot;Segoe UI&quot;, Ubuntu, &quot;Droid Sans&quot;, sans-serif, &quot;PingFang SC&quot;; font-size: 9px; font-weight: normal; text-rendering: geometricprecision;"><title>int64[2]</title><tspan style="font-weight: bold;">shape</tspan><tspan>〈2〉</tspan></text><line class="node" x1="0" x2="75" y1="0" y2="0" style="stroke: rgb(51, 51, 51); fill: none; stroke-width: 1px;"/></g><path class="node border" d="M5,0h65a5,5 0 0 1 5,5v31a5,5 0 0 1 -5,5h-65a5,5 0 0 1 -5,-5v-31a5,5 0 0 1 5,-5z" style="stroke: rgb(51, 51, 51); fill: none; stroke-width: 1px;"/></g><g id="node-name-Gemm_10" class="node graph-node" style="opacity: 1;" transform="translate(5,594)"><g class="node-item node-item-type node-item-type-layer" transform="translate(0,0)"><path d="M5,0h67a5,5 0 0 1 5,5v16a0,0 0 0 1 0,0h-77a0,0 0 0 1 0,0v-16a5,5 0 0 1 5,-5z" style="stroke: rgb(0, 0, 0); fill: rgb(51, 85, 136); stroke-width: 0;"/><text x="6" y="15" style="font-family: -apple-system, BlinkMacSystemFont, &quot;Segoe WPC&quot;, &quot;Segoe UI&quot;, Ubuntu, &quot;Droid Sans&quot;, sans-serif, &quot;PingFang SC&quot;; font-size: 11px; text-rendering: geometricprecision; fill: rgb(255, 255, 255);">Gemm</text><title>Gemm_10</title></g><g class="node-attribute" transform="translate(0,21)"><path d="M0,0h77a0,0 0 0 1 0,0v29a5,5 0 0 1 -5,5h-67a5,5 0 0 1 -5,-5v-29a0,0 0 0 1 0,0z" style="stroke: rgb(0, 0, 0); fill: rgb(255, 255, 255); stroke-width: 0;"/><text id="initializer-8.weight" xml:space="preserve" x="6" y="14" style="font-family: -apple-system, BlinkMacSystemFont, &quot;Segoe WPC&quot;, &quot;Segoe UI&quot;, Ubuntu, &quot;Droid Sans&quot;, sans-serif, &quot;PingFang SC&quot;; font-size: 9px; font-weight: normal; text-rendering: geometricprecision;"><title>float32[512,3136]</title><tspan style="font-weight: bold;">B</tspan><tspan>〈512×3136〉</tspan></text><text id="initializer-8.bias" xml:space="preserve" x="6" y="28" style="font-family: -apple-system, BlinkMacSystemFont, &quot;Segoe WPC&quot;, &quot;Segoe UI&quot;, Ubuntu, &quot;Droid Sans&quot;, sans-serif, &quot;PingFang SC&quot;; font-size: 9px; font-weight: normal; text-rendering: geometricprecision;"><title>float32[512]</title><tspan style="font-weight: bold;">C</tspan><tspan>〈512〉</tspan></text><line class="node" x1="0" x2="77" y1="0" y2="0" style="stroke: rgb(51, 51, 51); fill: none; stroke-width: 1px;"/></g><path class="node border" d="M5,0h67a5,5 0 0 1 5,5v45a5,5 0 0 1 -5,5h-67a5,5 0 0 1 -5,-5v-45a5,5 0 0 1 5,-5z" style="stroke: rgb(51, 51, 51); fill: none; stroke-width: 1px;"/></g><g id="node-name-Relu_11" class="node graph-node" style="opacity: 1;" transform="translate(25,669)"><g class="node-item node-item-type node-item-type-activation" transform="translate(0,0)"><path d="M5,0h27a5,5 0 0 1 5,5v11a5,5 0 0 1 -5,5h-27a5,5 0 0 1 -5,-5v-11a5,5 0 0 1 5,-5z" style="stroke: rgb(0, 0, 0); fill: rgb(112, 41, 33); stroke-width: 0;"/><text x="6" y="15" style="font-family: -apple-system, BlinkMacSystemFont, &quot;Segoe WPC&quot;, &quot;Segoe UI&quot;, Ubuntu, &quot;Droid Sans&quot;, sans-serif, &quot;PingFang SC&quot;; font-size: 11px; text-rendering: geometricprecision; fill: rgb(255, 255, 255);">Relu</text><title>Relu_11</title></g><path class="node border" d="M5,0h27a5,5 0 0 1 5,5v11a5,5 0 0 1 -5,5h-27a5,5 0 0 1 -5,-5v-11a5,5 0 0 1 5,-5z" style="stroke: rgb(51, 51, 51); fill: none; stroke-width: 1px;"/></g><g id="node-name-Gemm_12" class="node graph-node" style="opacity: 1;" transform="translate(6,710)"><g class="node-item node-item-type node-item-type-layer" transform="translate(0,0)"><path d="M5,0h65a5,5 0 0 1 5,5v16a0,0 0 0 1 0,0h-75a0,0 0 0 1 0,0v-16a5,5 0 0 1 5,-5z" style="stroke: rgb(0, 0, 0); fill: rgb(51, 85, 136); stroke-width: 0;"/><text x="6" y="15" style="font-family: -apple-system, BlinkMacSystemFont, &quot;Segoe WPC&quot;, &quot;Segoe UI&quot;, Ubuntu, &quot;Droid Sans&quot;, sans-serif, &quot;PingFang SC&quot;; font-size: 11px; text-rendering: geometricprecision; fill: rgb(255, 255, 255);">Gemm</text><title>Gemm_12</title></g><g class="node-attribute" transform="translate(0,21)"><path d="M0,0h75a0,0 0 0 1 0,0v29a5,5 0 0 1 -5,5h-65a5,5 0 0 1 -5,-5v-29a0,0 0 0 1 0,0z" style="stroke: rgb(0, 0, 0); fill: rgb(255, 255, 255); stroke-width: 0;"/><text id="initializer-10.weight" xml:space="preserve" x="6" y="14" style="font-family: -apple-system, BlinkMacSystemFont, &quot;Segoe WPC&quot;, &quot;Segoe UI&quot;, Ubuntu, &quot;Droid Sans&quot;, sans-serif, &quot;PingFang SC&quot;; font-size: 9px; font-weight: normal; text-rendering: geometricprecision;"><title>float32[18,512]</title><tspan style="font-weight: bold;">B</tspan><tspan>〈18×512〉</tspan></text><text id="initializer-10.bias" xml:space="preserve" x="6" y="28" style="font-family: -apple-system, BlinkMacSystemFont, &quot;Segoe WPC&quot;, &quot;Segoe UI&quot;, Ubuntu, &quot;Droid Sans&quot;, sans-serif, &quot;PingFang SC&quot;; font-size: 9px; font-weight: normal; text-rendering: geometricprecision;"><title>float32[18]</title><tspan style="font-weight: bold;">C</tspan><tspan>〈18〉</tspan></text><line class="node" x1="0" x2="75" y1="0" y2="0" style="stroke: rgb(51, 51, 51); fill: none; stroke-width: 1px;"/></g><path class="node border" d="M5,0h65a5,5 0 0 1 5,5v45a5,5 0 0 1 -5,5h-65a5,5 0 0 1 -5,-5v-45a5,5 0 0 1 5,-5z" style="stroke: rgb(51, 51, 51); fill: none; stroke-width: 1px;"/></g><g class="node" style="opacity: 1;" transform="translate(30.5,807)"><g class="node-item graph-item-output" transform="translate(0,0)"><path d="M5,0h16a5,5 0 0 1 5,5v11a5,5 0 0 1 -5,5h-16a5,5 0 0 1 -5,-5v-11a5,5 0 0 1 5,-5z" style="stroke: rgb(0, 0, 0); fill: rgb(238, 238, 238); stroke-width: 0;"/><text x="6" y="15" style="font-family: -apple-system, BlinkMacSystemFont, &quot;Segoe WPC&quot;, &quot;Segoe UI&quot;, Ubuntu, &quot;Droid Sans&quot;, sans-serif, &quot;PingFang SC&quot;; font-size: 11px; text-rendering: geometricprecision;">28</text><title>float32[5,18]</title></g><path class="node border" d="M5,0h16a5,5 0 0 1 5,5v11a5,5 0 0 1 -5,5h-16a5,5 0 0 1 -5,-5v-11a5,5 0 0 1 5,-5z" style="stroke: rgb(51, 51, 51); fill: none; stroke-width: 1px;"/></g></g></g></svg>